<?xml version="1.0" standalone="no"?>
<!DOCTYPE svg PUBLIC "-//W3C//DTD SVG 20010904//EN"
 "http://www.w3.org/TR/2001/REC-SVG-20010904/DTD/svg10.dtd">
<svg version="1.0" xmlns="http://www.w3.org/2000/svg"
 width="512.000000pt" height="512.000000pt" viewBox="0 0 512.000000 512.000000"
 preserveAspectRatio="xMidYMid meet">
<metadata>
Created by potrace 1.14, written by Peter Selinger 2001-2017
</metadata>
<g transform="translate(0.000000,512.000000) scale(0.100000,-0.100000)"
fill="#000000" stroke="none">
<path d="M1679 5116 c-2 -2 -31 -7 -64 -10 -95 -9 -295 -62 -422 -112 -215
-84 -447 -216 -655 -373 -61 -45 -117 -88 -124 -95 -6 -7 -26 -24 -44 -39 -51
-44 -54 -76 -14 -153 97 -186 231 -390 356 -539 87 -105 254 -275 295 -302
l24 -16 -88 -86 c-117 -115 -161 -167 -239 -282 -78 -117 -150 -258 -192 -376
-26 -74 -55 -172 -54 -180 1 -2 -4 -17 -9 -35 -5 -18 -12 -53 -15 -78 -3 -25
-10 -65 -14 -90 -10 -48 -6 -399 5 -464 70 -440 310 -848 655 -1116 125 -97
388 -240 440 -240 15 0 36 11 49 24 l23 24 51 -17 c45 -15 144 -40 225 -57 15
-3 22 -11 22 -29 0 -16 10 -31 27 -42 23 -15 53 -18 203 -20 191 -1 290 10
453 52 721 186 1236 799 1296 1543 13 156 -1 373 -31 487 -5 22 -12 51 -15 65
-19 107 -136 382 -215 506 -109 169 -280 353 -430 462 l-87 64 32 27 c18 14
50 40 72 56 22 16 53 42 69 56 27 25 32 26 55 14 83 -44 298 -256 405 -400
231 -309 362 -640 401 -1015 6 -55 6 -302 1 -350 -14 -129 -20 -165 -38 -250
-33 -157 -95 -333 -172 -484 -146 -289 -336 -510 -631 -734 -5 -4 -53 -34
-105 -67 -215 -132 -490 -235 -725 -269 -23 -4 -52 -9 -65 -12 -41 -9 -402
-13 -455 -4 -147 24 -202 33 -220 37 -11 3 -36 8 -55 13 -19 4 -71 19 -115 33
-524 162 -966 547 -1202 1047 -41 87 -99 237 -103 265 0 3 -7 22 -15 44 -14
40 -49 210 -61 291 -10 74 -13 391 -4 450 22 146 22 159 -4 185 -31 31 -78 33
-105 4 -12 -13 -23 -49 -32 -102 -15 -98 -20 -416 -8 -507 5 -36 12 -83 14
-105 13 -91 48 -237 85 -348 219 -657 745 -1171 1404 -1372 49 -15 94 -28 100
-29 6 -2 36 -8 66 -14 30 -6 66 -13 80 -16 14 -2 41 -7 60 -10 78 -14 113 -17
295 -20 242 -5 403 15 610 75 675 196 1215 706 1438 1359 35 101 70 233 80
295 3 17 10 59 15 95 54 340 18 705 -103 1036 -20 54 -39 106 -42 115 -3 12
14 22 79 44 261 88 478 215 639 375 197 195 277 378 284 652 5 234 -83 559
-222 818 -47 87 -63 99 -122 89 -81 -13 -282 -89 -419 -160 -366 -187 -572
-424 -637 -734 -11 -50 -14 -297 -5 -355 5 -30 11 -73 15 -95 l6 -40 -48 51
c-72 76 -178 170 -268 237 -74 55 -85 68 -144 171 -74 128 -140 228 -224 341
-75 99 -84 106 -125 102 -30 -3 -41 5 -125 91 -86 88 -92 96 -89 131 4 45 -15
66 -133 151 -182 130 -345 205 -535 246 -68 15 -350 30 -361 20z"/>
</g>
</svg>
